<svg width="800" height="800" viewBox="0 0 800 800" fill="none" xmlns="http://www.w3.org/2000/svg">
<path d="M462.5 147.5C440 135 412.5 137.5 392.5 152.5L342.5 187.5C330 180 315 175 300 175C285 175 270 180 257.5 187.5L207.5 152.5C187.5 137.5 160 137.5 137.5 147.5C115 160 100 182.5 100 210V292.5C100 317.5 115 342.5 137.5 352.5C147.5 357.5 157.5 360 167.5 360C182.5 360 195 355 207.5 347.5L257.5 312.5C270 320 285 325 300 325C315 325 330 320 342.5 312.5L392.5 347.5C405 355 417.5 360 432.5 360C442.5 360 455 357.5 462.5 352.5C485 340 500 317.5 500 292.5V210C500 182.5 485 160 462.5 147.5Z" fill="#F27D7D"/>
<path d="M350 122.5L362.5 112.5C397.5 87.5 445 82.5 485 102.5C522.5 122.5 547.5 160 550 200H675V50C675 35 665 25 650 25H350V122.5Z" fill="#F45656"/>
<path d="M237.5 112.5L250 122.5V25H150C135 25 125 35 125 50V100C162.5 85 205 90 237.5 112.5Z" fill="#F45656"/>
<path d="M250 377.5L237.5 387.5C205 410 162.5 415 125 400V750C125 765 135 775 150 775H250V377.5Z" fill="#F45656"/>
<path d="M550 300C547.5 340 522.5 377.5 487.5 397.5C470 405 452.5 410 432.5 410C407.5 410 385 402.5 365 387.5L350 377.5V775H650C665 775 675 765 675 750V300H550Z" fill="#F45656"/>
</svg>
